<svg width="204" height="58" viewBox="0 0 204 58" fill="none" xmlns="http://www.w3.org/2000/svg">
    <path
        d="M39.1941 23.1818C39.1941 27.7841 38.3631 31.7614 36.7012 35.1136C35.0392 38.4659 32.7594 41.0511 29.8617 42.8693C26.964 44.6875 23.6543 45.5966 19.9327 45.5966C16.2111 45.5966 12.9015 44.6875 10.0037 42.8693C7.106 41.0511 4.82617 38.4659 3.16424 35.1136C1.50231 31.7614 0.671342 27.7841 0.671342 23.1818C0.671342 18.5795 1.50231 14.6023 3.16424 11.25C4.82617 7.89773 7.106 5.3125 10.0037 3.49432C12.9015 1.67614 16.2111 0.767044 19.9327 0.767044C23.6543 0.767044 26.964 1.67614 29.8617 3.49432C32.7594 5.3125 35.0392 7.89773 36.7012 11.25C38.3631 14.6023 39.1941 18.5795 39.1941 23.1818ZM34.0804 23.1818C34.0804 19.4034 33.4483 16.2145 32.1841 13.6151C30.9341 11.0156 29.2367 9.0483 27.0918 7.71307C24.9611 6.37784 22.5748 5.71023 19.9327 5.71023C17.2907 5.71023 14.8972 6.37784 12.7523 7.71307C10.6216 9.0483 8.92418 11.0156 7.65998 13.6151C6.40998 16.2145 5.78498 19.4034 5.78498 23.1818C5.78498 26.9602 6.40998 30.1491 7.65998 32.7486C8.92418 35.348 10.6216 37.3153 12.7523 38.6506C14.8972 39.9858 17.2907 40.6534 19.9327 40.6534C22.5748 40.6534 24.9611 39.9858 27.0918 38.6506C29.2367 37.3153 30.9341 35.348 32.1841 32.7486C33.4483 30.1491 34.0804 26.9602 34.0804 23.1818ZM47.3972 57.2727V12.2727H52.2551V17.4716H52.8517C53.2211 16.9034 53.7324 16.179 54.3858 15.2983C55.0534 14.4034 56.0051 13.608 57.2409 12.9119C58.4909 12.2017 60.1813 11.8466 62.312 11.8466C65.0676 11.8466 67.4966 12.5355 69.5989 13.9134C71.7012 15.2912 73.3418 17.2443 74.5208 19.7727C75.6998 22.3011 76.2892 25.2841 76.2892 28.7216C76.2892 32.1875 75.6998 35.1918 74.5208 37.7344C73.3418 40.2628 71.7083 42.223 69.6202 43.6151C67.5321 44.9929 65.1245 45.6818 62.3972 45.6818C60.2949 45.6818 58.6117 45.3338 57.3475 44.6378C56.0833 43.9276 55.1103 43.125 54.4284 42.2301C53.7466 41.321 53.2211 40.5682 52.8517 39.9716H52.4256V57.2727H47.3972ZM52.3404 28.6364C52.3404 31.108 52.7026 33.2884 53.427 35.1776C54.1515 37.0526 55.2097 38.5227 56.6017 39.5881C57.9938 40.6392 59.6983 41.1648 61.7154 41.1648C63.8176 41.1648 65.5719 40.6108 66.9782 39.5028C68.3986 38.3807 69.464 36.875 70.1742 34.9858C70.8986 33.0824 71.2608 30.9659 71.2608 28.6364C71.2608 26.3352 70.9057 24.2614 70.1955 22.4148C69.4995 20.554 68.4412 19.0838 67.0208 18.0043C65.6145 16.9105 63.8461 16.3636 61.7154 16.3636C59.6699 16.3636 57.9512 16.8821 56.5591 17.919C55.1671 18.9418 54.1159 20.3764 53.4057 22.223C52.6955 24.0554 52.3404 26.1932 52.3404 28.6364ZM97.6813 45.6818C94.5279 45.6818 91.8077 44.9858 89.5208 43.5938C87.248 42.1875 85.4938 40.2273 84.258 37.7131C83.0364 35.1847 82.4256 32.2443 82.4256 28.892C82.4256 25.5398 83.0364 22.5852 84.258 20.0284C85.4938 17.4574 87.2125 15.4545 89.4142 14.0199C91.6301 12.571 94.2154 11.8466 97.1699 11.8466C98.8745 11.8466 100.558 12.1307 102.22 12.6989C103.882 13.267 105.394 14.1903 106.758 15.4688C108.122 16.733 109.208 18.4091 110.018 20.4972C110.828 22.5852 111.232 25.1562 111.232 28.2102V30.3409H86.0051V25.9943H106.119C106.119 24.1477 105.749 22.5 105.011 21.0511C104.286 19.6023 103.249 18.4588 101.9 17.6207C100.565 16.7827 98.9881 16.3636 97.1699 16.3636C95.1671 16.3636 93.4341 16.8608 91.9711 17.8551C90.5222 18.8352 89.4071 20.1136 88.6259 21.6903C87.8446 23.267 87.454 24.9574 87.454 26.7614V29.6591C87.454 32.1307 87.8801 34.2259 88.7324 35.9446C89.5989 37.6491 90.7992 38.9489 92.3333 39.8438C93.8674 40.7244 95.65 41.1648 97.6813 41.1648C99.0023 41.1648 100.195 40.9801 101.261 40.6108C102.34 40.2273 103.271 39.6591 104.052 38.9062C104.833 38.1392 105.437 37.1875 105.863 36.0511L110.721 37.4148C110.21 39.0625 109.35 40.5114 108.143 41.7614C106.936 42.9972 105.444 43.9631 103.669 44.6591C101.893 45.3409 99.8972 45.6818 97.6813 45.6818ZM123.91 25.3125V45H118.882V12.2727H123.74V17.3864H124.166C124.933 15.7244 126.097 14.3892 127.66 13.3807C129.222 12.358 131.24 11.8466 133.711 11.8466C135.927 11.8466 137.866 12.3011 139.528 13.2102C141.19 14.1051 142.482 15.4688 143.406 17.3011C144.329 19.1193 144.791 21.4205 144.791 24.2045V45H139.762V24.5455C139.762 21.9744 139.095 19.9716 137.759 18.5369C136.424 17.0881 134.592 16.3636 132.262 16.3636C130.657 16.3636 129.222 16.7116 127.958 17.4077C126.708 18.1037 125.721 19.1193 124.997 20.4545C124.272 21.7898 123.91 23.4091 123.91 25.3125ZM189.775 15H184.491C184.178 13.4801 183.631 12.1449 182.85 10.9943C182.083 9.84375 181.145 8.87784 180.037 8.09659C178.944 7.30114 177.729 6.70455 176.394 6.30682C175.059 5.90909 173.667 5.71023 172.218 5.71023C169.576 5.71023 167.182 6.37784 165.037 7.71307C162.907 9.0483 161.209 11.0156 159.945 13.6151C158.695 16.2145 158.07 19.4034 158.07 23.1818C158.07 26.9602 158.695 30.1491 159.945 32.7486C161.209 35.348 162.907 37.3153 165.037 38.6506C167.182 39.9858 169.576 40.6534 172.218 40.6534C173.667 40.6534 175.059 40.4545 176.394 40.0568C177.729 39.6591 178.944 39.0696 180.037 38.2884C181.145 37.4929 182.083 36.5199 182.85 35.3693C183.631 34.2045 184.178 32.8693 184.491 31.3636H189.775C189.377 33.5937 188.653 35.5895 187.601 37.3509C186.55 39.1122 185.243 40.6108 183.681 41.8466C182.118 43.0682 180.364 43.9986 178.418 44.6378C176.486 45.277 174.42 45.5966 172.218 45.5966C168.496 45.5966 165.187 44.6875 162.289 42.8693C159.391 41.0511 157.111 38.4659 155.449 35.1136C153.787 31.7614 152.956 27.7841 152.956 23.1818C152.956 18.5795 153.787 14.6023 155.449 11.25C157.111 7.89773 159.391 5.3125 162.289 3.49432C165.187 1.67614 168.496 0.767044 172.218 0.767044C174.42 0.767044 176.486 1.08665 178.418 1.72585C180.364 2.36506 182.118 3.30256 183.681 4.53835C185.243 5.75994 186.55 7.25142 187.601 9.01278C188.653 10.7599 189.377 12.7557 189.775 15ZM203.597 1.36364V45H198.313V1.36364H203.597Z"
        fill="#FFFFFF" />
</svg>